<svg viewBox="0 0 40 40" >
<path fill="#fff" d="M50,100A20,20,0,1,0,30,80,20.024,20.024,0,0,0,50,100ZM67.225,80A17.227,17.227,0,1,1,50,62.777,17.228,17.228,0,0,1,67.225,80Zm-24.7-10.744H52.807l-1.577,2.5-10.278,0Zm7.443,12.5H46.961v0H36.952l3.164-5.006-2.323,0,1.581-2.5h9.682l-1.582,2.5H43.131l-1.6,2.5h6.992l6.39-10.089,7.953,12.588h-3l-1.577-2.5H53.578l1.583-2.506H56.7l-1.792-2.841Zm13.7,1.553H63.458v0.433h-0.1V83.312H63.151V83.22h0.513v0.092Zm0.7,0.433H64.273V83.421c0-.012,0-0.031,0-0.056a0.273,0.273,0,0,1-.023.056l-0.164.257H64.064l-0.167-.26a0.244,0.244,0,0,1-.031-0.053c0,0.021.009,0.039,0.009,0.056v0.324H63.789V83.22h0.088l0.2,0.317,0.208-.317h0.08v0.525ZM40.442,87.294A1.142,1.142,0,0,1,39.3,88.445H37.944a1.109,1.109,0,0,1-1.135-1.131V86.777h0.834l0.125,0.5a0.4,0.4,0,0,0,.428.311H39.11a0.337,0.337,0,0,0,.278-0.127,0.468,0.468,0,0,0,.106-0.318V86.55a0.363,0.363,0,0,0-.384-0.435H37.958a1.147,1.147,0,0,1-1.149-1.151v-0.78a1.1,1.1,0,0,1,.337-0.8,1.11,1.11,0,0,1,.812-0.339H39.3a1.115,1.115,0,0,1,.8.323,1.093,1.093,0,0,1,.322.8v0.487H39.6l-0.126-.441A0.4,0.4,0,0,0,39.05,83.9h-0.9a0.336,0.336,0,0,0-.278.128,0.456,0.456,0,0,0-.105.318V84.8a0.357,0.357,0,0,0,.383.426H39.3a1.163,1.163,0,0,1,1.145,1.151v0.914Zm3.374-3.379h-1.3v1.676h1.3a0.347,0.347,0,0,0,.274-0.126,0.467,0.467,0,0,0,.107-0.319V84.359a0.455,0.455,0,0,0-.107-0.316A0.342,0.342,0,0,0,43.816,83.915Zm1.336,1.4a1.107,1.107,0,0,1-.334.809,1.134,1.134,0,0,1-.818.338H42.515v1.98H41.559v-5.4H44a1.117,1.117,0,0,1,.818.339,1.089,1.089,0,0,1,.334.8v1.136Zm7.948-1.4H51.851V85.46H53.1a0.348,0.348,0,0,0,.274-0.119,0.492,0.492,0,0,0,.1-0.317V84.359a0.492,0.492,0,0,0-.1-0.316A0.338,0.338,0,0,0,53.1,83.915Zm0.538,4.53-0.88-2.115H51.851v2.115H50.893v-5.4h2.391a1.152,1.152,0,0,1,1.15,1.141v0.941a1.167,1.167,0,0,1-.2.664,1.248,1.248,0,0,1-.528.425l0.95,2.232H53.638Zm5.114-4.53H57.366v4.53H56.41v-4.53H55.034V83.042h3.718v0.873Zm4.329,3.379a1.146,1.146,0,0,1-1.151,1.151H60.579a1.1,1.1,0,0,1-.807-0.322,1.082,1.082,0,0,1-.324-0.809V86.777h0.83l0.124,0.5a0.4,0.4,0,0,0,.429.311h0.914a0.359,0.359,0,0,0,.284-0.127,0.491,0.491,0,0,0,.1-0.318V86.55a0.363,0.363,0,0,0-.386-0.435h-1.15a1.106,1.106,0,0,1-.812-0.335,1.12,1.12,0,0,1-.335-0.816v-0.78a1.15,1.15,0,0,1,1.147-1.142H61.93a1.114,1.114,0,0,1,.8.323,1.086,1.086,0,0,1,.33.8v0.487H62.233l-0.127-.441a0.4,0.4,0,0,0-.419-0.311h-0.9a0.334,0.334,0,0,0-.282.128,0.484,0.484,0,0,0-.108.318V84.8a0.361,0.361,0,0,0,.389.426H61.93a1.174,1.174,0,0,1,1.151,1.151v0.914Zm-13.349-.009a1.1,1.1,0,0,1-.338.824,1.114,1.114,0,0,1-.818.337H47.288a1.149,1.149,0,0,1-1.154-1.161v-3.1a1.09,1.09,0,0,1,.336-0.8,1.1,1.1,0,0,1,.818-0.339h1.288a1.127,1.127,0,0,1,.818.334,1.085,1.085,0,0,1,.338.807v3.1Zm-1.341-3.37H47.475a0.354,0.354,0,0,0-.28.128,0.471,0.471,0,0,0-.1.316v2.769a0.468,0.468,0,0,0,.1.314,0.346,0.346,0,0,0,.28.132h0.916a0.341,0.341,0,0,0,.279-0.132,0.468,0.468,0,0,0,.107-0.314V84.359a0.471,0.471,0,0,0-.107-0.316A0.349,0.349,0,0,0,48.391,83.915Z" transform="translate(-30 -60)"></path>
</svg>